<?xml version="1.0" encoding="UTF-8"?>
<svg xmlns="http://www.w3.org/2000/svg" xmlns:xlink="http://www.w3.org/1999/xlink" width="395.08pt" height="184.839pt" viewBox="0 0 395.08 184.839" role="img" aria-labelledby="trajectory-title trajectory-description">
<title id="trajectory-title">Stopped trajectories</title>
<desc id="trajectory-description">Observed illness–death paths with a probability cloud and censoring cuts. Blue: recurrence at 3, observed death at 6, censoring at 8. Orange: censoring at 4 and hidden death at 7.5. Purple: recurrence at 2, censoring at 5, hidden death at 9. Pale dashed portions are illustrative unobserved continuations, not estimates.</desc>
<defs>
<g>
<g id="glyph-0-0">
<path d="M 3.1875 -0.609375 C 2.9375 -0.46875 2.6875 -0.390625 2.390625 -0.390625 C 1.875 -0.390625 1.625 -0.6875 1.625 -1.296875 L 1.625 -4.734375 L 2.90625 -4.734375 L 2.96875 -5.203125 L 1.625 -5.203125 L 1.625 -6.515625 L 1.046875 -6.4375 L 1.046875 -5.203125 L 0.171875 -5.203125 L 0.171875 -4.734375 L 1.046875 -4.734375 L 1.046875 -1.265625 C 1.046875 -0.359375 1.546875 0.109375 2.328125 0.109375 C 2.75 0.109375 3.09375 -0.015625 3.421875 -0.21875 Z M 3.1875 -0.609375 "/>
</g>
<g id="glyph-0-1">
<path d="M 1.328125 -7.484375 C 1.0625 -7.484375 0.890625 -7.296875 0.890625 -7.0625 C 0.890625 -6.84375 1.0625 -6.640625 1.328125 -6.640625 C 1.59375 -6.640625 1.765625 -6.84375 1.765625 -7.0625 C 1.765625 -7.296875 1.59375 -7.484375 1.328125 -7.484375 Z M 1.625 -5.203125 L 1.046875 -5.203125 L 1.046875 0 L 1.625 0 Z M 1.625 -5.203125 "/>
</g>
<g id="glyph-0-2">
<path d="M 6.109375 -5.3125 C 5.421875 -5.3125 4.875 -4.890625 4.46875 -4.265625 C 4.3125 -4.921875 3.84375 -5.3125 3.1875 -5.3125 C 2.515625 -5.3125 1.984375 -4.921875 1.59375 -4.328125 L 1.546875 -5.203125 L 1.046875 -5.203125 L 1.046875 0 L 1.625 0 L 1.625 -3.765625 C 2 -4.40625 2.453125 -4.84375 3.078125 -4.84375 C 3.625 -4.84375 3.953125 -4.484375 3.953125 -3.640625 L 3.953125 0 L 4.53125 0 L 4.53125 -3.765625 C 4.921875 -4.40625 5.359375 -4.84375 6 -4.84375 C 6.53125 -4.84375 6.875 -4.484375 6.875 -3.640625 L 6.875 0 L 7.453125 0 L 7.453125 -3.71875 C 7.453125 -4.703125 6.953125 -5.3125 6.109375 -5.3125 Z M 6.109375 -5.3125 "/>
</g>
<g id="glyph-0-3">
<path d="M 4.734375 -2.796875 C 4.734375 -4.328125 4.0625 -5.3125 2.71875 -5.3125 C 1.4375 -5.3125 0.640625 -4.21875 0.640625 -2.546875 C 0.640625 -0.890625 1.46875 0.109375 2.84375 0.109375 C 3.53125 0.109375 4.046875 -0.125 4.546875 -0.53125 L 4.265625 -0.890625 C 3.8125 -0.5625 3.4375 -0.375 2.875 -0.375 C 1.984375 -0.375 1.328125 -0.96875 1.25 -2.375 L 4.71875 -2.375 C 4.734375 -2.46875 4.734375 -2.640625 4.734375 -2.796875 Z M 4.171875 -2.828125 L 1.25 -2.828125 C 1.3125 -4.21875 1.921875 -4.828125 2.734375 -4.828125 C 3.71875 -4.828125 4.171875 -4.109375 4.171875 -2.96875 Z M 4.171875 -2.828125 "/>
</g>
<g id="glyph-1-0">
<path d="M 1.921875 -4.734375 L 3.1875 -4.734375 L 3.3125 -5.203125 L 1.984375 -5.203125 L 2.171875 -6.515625 L 1.703125 -6.453125 L 1.421875 -5.203125 L 0.53125 -5.203125 L 0.46875 -4.734375 L 1.34375 -4.734375 L 0.859375 -1.28125 C 0.71875 -0.375 1.171875 0.109375 1.953125 0.109375 C 2.359375 0.109375 2.734375 -0.015625 3.078125 -0.203125 L 2.875 -0.640625 C 2.59375 -0.484375 2.328125 -0.390625 2.03125 -0.390625 C 1.53125 -0.390625 1.34375 -0.671875 1.4375 -1.28125 Z M 1.921875 -4.734375 "/>
</g>
<g id="glyph-2-0">
<path d="M 1.140625 -2.171875 C 1.265625 -2.21875 1.609375 -2.4375 1.609375 -2.578125 C 1.609375 -2.65625 1.546875 -2.65625 1.484375 -2.65625 C 1.15625 -2.65625 0.171875 -2.21875 0.171875 -1.234375 C 0.171875 -0.515625 0.984375 0.21875 2.203125 0.21875 C 3.8125 0.21875 5.6875 -0.90625 5.6875 -2.25 C 5.6875 -3.203125 4.703125 -3.65625 3.890625 -4.015625 C 3.203125 -4.328125 2.75 -4.734375 2.75 -5.3125 C 2.75 -5.515625 2.828125 -5.90625 3.140625 -6.171875 C 3.4375 -6.421875 4 -6.453125 4.140625 -6.453125 C 4.25 -6.453125 4.65625 -6.453125 5.09375 -6.265625 C 5.28125 -6.171875 5.53125 -6.046875 5.53125 -5.625 C 5.53125 -5.484375 5.53125 -5.4375 5.5 -5.328125 C 5.484375 -5.296875 5.46875 -5.25 5.46875 -5.234375 C 5.46875 -5.15625 5.53125 -5.15625 5.578125 -5.15625 C 5.703125 -5.15625 5.9375 -5.25 6.140625 -5.421875 C 6.265625 -5.53125 6.375 -5.65625 6.375 -6.046875 C 6.375 -6.53125 6.125 -6.671875 5.859375 -6.78125 C 5.390625 -7 4.921875 -7 4.796875 -7 C 3.484375 -7 1.890625 -6.015625 1.890625 -4.875 C 1.890625 -4.046875 2.765625 -3.640625 3.234375 -3.4375 C 3.9375 -3.125 4.84375 -2.65625 4.84375 -1.828125 C 4.84375 -1.15625 4.359375 -0.328125 2.859375 -0.328125 C 1.84375 -0.328125 1.03125 -0.984375 1.03125 -1.65625 C 1.03125 -1.84375 1.078125 -2.015625 1.140625 -2.171875 Z M 1.140625 -2.171875 "/>
</g>
<g id="glyph-2-1">
<path d="M 8.25 -6.40625 C 8.25 -6.859375 7.484375 -6.796875 7.171875 -6.796875 L 3.421875 -6.796875 C 2.9375 -6.796875 2.046875 -6.515625 1.890625 -5.96875 C 1.90625 -5.90625 1.921875 -5.90625 1.984375 -5.90625 C 2.203125 -5.90625 2.5 -6.078125 2.640625 -6.234375 C 2.953125 -6.234375 3.25 -6.25 3.5625 -6.25 L 4.171875 -6.25 C 4.171875 -6.25 4.140625 -6.078125 4.140625 -6.0625 C 3.75 -4.25 3.15625 -2.703125 2.71875 -1.734375 C 2.65625 -1.59375 2.125 -0.359375 1.984375 -0.234375 C 1.546875 -0.234375 1.21875 -0.484375 1.046875 -0.859375 C 1.015625 -0.921875 1.015625 -0.96875 0.9375 -0.96875 C 0.71875 -0.96875 0.171875 -0.640625 0.171875 -0.484375 C 0.171875 -0.453125 0.171875 -0.4375 0.1875 -0.421875 C 0.375 0.046875 0.8125 0.3125 1.296875 0.3125 C 1.8125 0.3125 2.390625 -0.046875 2.71875 -0.421875 C 3.046875 -0.796875 3.703125 -2.421875 3.953125 -3.015625 L 5.875 -3.015625 C 5.859375 -3.015625 5.859375 -3 5.859375 -2.984375 C 5.859375 -2.953125 5.90625 -2.921875 5.953125 -2.921875 C 6.171875 -2.921875 6.734375 -3.203125 6.734375 -3.515625 C 6.734375 -3.578125 6.671875 -3.5625 6.546875 -3.5625 L 4.15625 -3.5625 C 4.421875 -4.46875 4.765625 -5.34375 4.9375 -6.25 L 6.25 -6.25 C 6.5 -6.25 7.1875 -6.296875 7.375 -6.078125 C 7.390625 -6.015625 7.359375 -5.921875 7.390625 -5.875 C 7.40625 -5.859375 7.4375 -5.84375 7.46875 -5.84375 C 7.71875 -5.84375 8.25 -6.140625 8.25 -6.40625 Z M 8.25 -6.40625 "/>
</g>
<g id="glyph-3-0">
<path d="M 2.6875 -7.453125 C 2.375 -7.15625 1.703125 -6.546875 1.25 -5.328125 C 0.859375 -4.265625 0.78125 -3.203125 0.78125 -2.484375 C 0.78125 0.71875 2.21875 2.046875 2.6875 2.484375 L 3.296875 2.484375 C 2.828125 2 1.5625 0.71875 1.5625 -2.484375 C 1.5625 -3.046875 1.59375 -4.203125 2 -5.375 C 2.40625 -6.53125 2.96875 -7.125 3.296875 -7.453125 Z M 2.6875 -7.453125 "/>
</g>
<g id="glyph-3-1">
<path d="M 1.15625 2.484375 C 1.484375 2.1875 2.140625 1.578125 2.609375 0.359375 C 3 -0.703125 3.078125 -1.765625 3.078125 -2.484375 C 3.078125 -5.6875 1.640625 -7.015625 1.15625 -7.453125 L 0.5625 -7.453125 C 1.03125 -6.96875 2.296875 -5.6875 2.296875 -2.484375 C 2.296875 -1.921875 2.265625 -0.765625 1.859375 0.40625 C 1.453125 1.5625 0.890625 2.15625 0.5625 2.484375 Z M 1.15625 2.484375 "/>
</g>
<g id="glyph-3-2">
<path d="M 6.734375 -0.703125 L 5.890625 -0.703125 C 5.765625 -0.703125 5.640625 -0.703125 5.53125 -0.703125 L 5 -0.703125 C 5.140625 -1.25 5.421875 -1.734375 5.78125 -2.328125 C 6.1875 -3.015625 6.609375 -3.75 6.609375 -4.59375 C 6.609375 -5.984375 5.265625 -7.109375 3.59375 -7.109375 C 1.875 -7.109375 0.5625 -5.96875 0.5625 -4.59375 C 0.5625 -3.75 0.96875 -3.046875 1.484375 -2.171875 C 1.84375 -1.546875 2.0625 -1.140625 2.171875 -0.703125 L 1.640625 -0.703125 C 1.515625 -0.703125 1.40625 -0.703125 1.28125 -0.703125 L 0.4375 -0.703125 L 0.4375 0 L 2.875 0 C 2.859375 -0.5 2.78125 -1.03125 2.234375 -2.140625 C 1.84375 -2.953125 1.4375 -3.75 1.4375 -4.578125 C 1.4375 -5.71875 2.390625 -6.515625 3.578125 -6.515625 C 4.796875 -6.515625 5.71875 -5.6875 5.71875 -4.578125 C 5.71875 -3.8125 5.375 -3.0625 5 -2.265625 C 4.578125 -1.40625 4.296875 -0.796875 4.296875 0 L 6.734375 0 Z M 6.734375 -0.703125 "/>
</g>
<g id="glyph-4-0">
<path d="M 2.46875 -6.046875 C 1.234375 -6.046875 0.59375 -5 0.59375 -2.984375 C 0.59375 -0.96875 1.234375 0.09375 2.46875 0.09375 C 3.6875 0.09375 4.328125 -0.953125 4.328125 -2.96875 C 4.328125 -5 3.6875 -6.046875 2.46875 -6.046875 Z M 2.46875 -5.625 C 3.328125 -5.625 3.78125 -4.8125 3.78125 -2.96875 C 3.78125 -1.140625 3.328125 -0.328125 2.46875 -0.328125 C 1.609375 -0.328125 1.125 -1.140625 1.125 -2.984375 C 1.125 -4.8125 1.609375 -5.625 2.46875 -5.625 Z M 2.46875 -5.625 "/>
</g>
<g id="glyph-4-1">
<path d="M 2.09375 -7.5 C 1.21875 -6.28125 0.484375 -5.21875 0.484375 -3.140625 C 0.484375 -1.046875 1.21875 0.015625 2.09375 1.234375 L 2.421875 1.015625 C 1.625 -0.171875 1.015625 -1.1875 1.015625 -3.140625 C 1.015625 -5.078125 1.625 -6.09375 2.421875 -7.28125 Z M 2.09375 -7.5 "/>
</g>
<g id="glyph-4-2">
<path d="M 4.34375 0 L 4.90625 0 L 2.859375 -6.140625 L 2.1875 -6.140625 L 0.140625 0 L 0.6875 0 L 1.234375 -1.671875 L 3.8125 -1.671875 Z M 1.375 -2.125 L 2.53125 -5.6875 L 3.65625 -2.125 Z M 1.375 -2.125 "/>
</g>
<g id="glyph-4-3">
<path d="M 1.71875 0.09375 C 1.921875 0.09375 2.109375 0.046875 2.25 -0.03125 L 2.109375 -0.40625 C 2.015625 -0.359375 1.890625 -0.34375 1.78125 -0.34375 C 1.53125 -0.34375 1.40625 -0.5 1.40625 -0.8125 L 1.40625 -6.65625 L 0.890625 -6.59375 L 0.890625 -0.78125 C 0.890625 -0.1875 1.234375 0.09375 1.71875 0.09375 Z M 1.71875 0.09375 "/>
</g>
<g id="glyph-4-4">
<path d="M 1.1875 -6.734375 C 0.953125 -6.734375 0.8125 -6.578125 0.8125 -6.359375 C 0.8125 -6.15625 0.953125 -5.984375 1.1875 -5.984375 C 1.4375 -5.984375 1.578125 -6.15625 1.578125 -6.359375 C 1.578125 -6.578125 1.4375 -6.734375 1.1875 -6.734375 Z M 1.453125 -4.6875 L 0.9375 -4.6875 L 0.9375 0 L 1.453125 0 Z M 1.453125 -4.6875 "/>
</g>
<g id="glyph-4-5">
<path d="M 4.078125 -4.6875 L 3.515625 -4.6875 L 2.140625 -0.453125 L 0.703125 -4.6875 L 0.140625 -4.6875 L 1.8125 0 L 2.453125 0 Z M 4.078125 -4.6875 "/>
</g>
<g id="glyph-4-6">
<path d="M 4.265625 -2.515625 C 4.265625 -3.890625 3.65625 -4.78125 2.4375 -4.78125 C 1.296875 -4.78125 0.578125 -3.796875 0.578125 -2.296875 C 0.578125 -0.796875 1.328125 0.09375 2.5625 0.09375 C 3.171875 0.09375 3.65625 -0.109375 4.09375 -0.46875 L 3.84375 -0.8125 C 3.4375 -0.5 3.09375 -0.34375 2.59375 -0.34375 C 1.78125 -0.34375 1.1875 -0.875 1.125 -2.140625 L 4.25 -2.140625 C 4.265625 -2.234375 4.265625 -2.375 4.265625 -2.515625 Z M 3.765625 -2.546875 L 1.125 -2.546875 C 1.1875 -3.8125 1.734375 -4.34375 2.46875 -4.34375 C 3.34375 -4.34375 3.765625 -3.703125 3.765625 -2.671875 Z M 3.765625 -2.546875 "/>
</g>
<g id="glyph-4-7">
<path d="M 0.8125 -7.5 L 0.484375 -7.28125 C 1.28125 -6.09375 1.875 -5.078125 1.875 -3.140625 C 1.875 -1.1875 1.28125 -0.171875 0.484375 1.015625 L 0.8125 1.234375 C 1.6875 0.015625 2.421875 -1.046875 2.421875 -3.140625 C 2.421875 -5.21875 1.6875 -6.28125 0.8125 -7.5 Z M 0.8125 -7.5 "/>
</g>
<g id="glyph-4-8">
<path d="M 2.609375 -5.953125 L 2.171875 -5.953125 L 0.390625 -4.859375 L 0.625 -4.46875 L 2.09375 -5.375 L 2.09375 0 L 2.609375 0 Z M 2.609375 -5.953125 "/>
</g>
<g id="glyph-4-9">
<path d="M 2.015625 -6.046875 C 1.296875 -6.046875 0.765625 -5.78125 0.296875 -5.203125 L 0.65625 -4.9375 C 1.015625 -5.375 1.421875 -5.609375 1.984375 -5.609375 C 2.671875 -5.609375 3.109375 -5.171875 3.109375 -4.453125 C 3.109375 -3.40625 2.59375 -2.796875 0.390625 -0.4375 L 0.390625 0 L 3.75 0 L 3.8125 -0.453125 L 1 -0.453125 C 2.984375 -2.5625 3.65625 -3.296875 3.65625 -4.484375 C 3.65625 -5.375 3.03125 -6.046875 2.015625 -6.046875 Z M 2.015625 -6.046875 "/>
</g>
<g id="glyph-4-10">
<path d="M 2.21875 -6.140625 L 1 -6.140625 L 1 0 L 2.3125 0 C 3.578125 0 5.0625 -0.578125 5.0625 -3.109375 C 5.0625 -5.640625 3.640625 -6.140625 2.21875 -6.140625 Z M 2.28125 -5.6875 C 3.359375 -5.6875 4.5 -5.359375 4.5 -3.109375 C 4.5 -0.90625 3.40625 -0.453125 2.34375 -0.453125 L 1.53125 -0.453125 L 1.53125 -5.6875 Z M 2.28125 -5.6875 "/>
</g>
<g id="glyph-4-11">
<path d="M 3.8125 -1.03125 L 3.8125 -3.296875 C 3.8125 -4.25 3.34375 -4.78125 2.28125 -4.78125 C 1.796875 -4.78125 1.328125 -4.671875 0.8125 -4.46875 L 0.9375 -4.078125 C 1.40625 -4.25 1.828125 -4.34375 2.21875 -4.34375 C 2.984375 -4.34375 3.296875 -4.015625 3.296875 -3.265625 L 3.296875 -2.8125 L 2.40625 -2.8125 C 1.203125 -2.8125 0.453125 -2.28125 0.453125 -1.296875 C 0.453125 -0.46875 1 0.09375 1.90625 0.09375 C 2.53125 0.09375 3.03125 -0.15625 3.359375 -0.6875 C 3.4375 -0.203125 3.6875 0.015625 4.09375 0.09375 L 4.203125 -0.265625 C 3.953125 -0.359375 3.8125 -0.515625 3.8125 -1.03125 Z M 2 -0.328125 C 1.375 -0.328125 1.015625 -0.6875 1.015625 -1.328125 C 1.015625 -2.0625 1.546875 -2.4375 2.484375 -2.4375 L 3.296875 -2.4375 L 3.296875 -1.15625 C 3.015625 -0.625 2.59375 -0.328125 2 -0.328125 Z M 2 -0.328125 "/>
</g>
<g id="glyph-4-12">
<path d="M 3.71875 -6.65625 L 3.71875 -4.140625 C 3.453125 -4.46875 3.046875 -4.78125 2.40625 -4.78125 C 1.265625 -4.78125 0.578125 -3.765625 0.578125 -2.3125 C 0.578125 -0.828125 1.234375 0.09375 2.328125 0.09375 C 3.015625 0.09375 3.453125 -0.25 3.734375 -0.71875 L 3.796875 0 L 4.25 0 L 4.25 -6.59375 Z M 2.40625 -0.328125 C 1.625 -0.328125 1.125 -1.015625 1.125 -2.328125 C 1.125 -3.640625 1.671875 -4.34375 2.5 -4.34375 C 3.078125 -4.34375 3.453125 -4.03125 3.71875 -3.640625 L 3.71875 -1.203125 C 3.40625 -0.640625 3.03125 -0.328125 2.40625 -0.328125 Z M 2.40625 -0.328125 "/>
</g>
<g id="glyph-5-0">
<path d="M 4.953125 -4.6875 C 4.953125 -5.640625 4.328125 -6.140625 3.03125 -6.140625 L 1.515625 -6.140625 L 0.65625 0 L 1.1875 0 L 1.578125 -2.75 L 2.8125 -2.75 L 4.03125 0 L 4.625 0 L 3.34375 -2.828125 C 4.546875 -3.09375 4.953125 -3.9375 4.953125 -4.6875 Z M 1.640625 -3.1875 L 2 -5.6875 L 2.984375 -5.6875 C 3.984375 -5.6875 4.390625 -5.375 4.390625 -4.6875 C 4.390625 -4.015625 4.015625 -3.1875 2.703125 -3.1875 Z M 1.640625 -3.1875 "/>
</g>
<g id="glyph-5-1">
<path d="M 3.578125 -6.234375 C 1.4375 -6.234375 0.640625 -4 0.640625 -2.359375 C 0.640625 -0.75 1.5 0.09375 2.734375 0.09375 C 3.46875 0.09375 4.03125 -0.171875 4.453125 -0.515625 L 4.203125 -0.890625 C 3.8125 -0.609375 3.40625 -0.375 2.765625 -0.375 C 1.859375 -0.375 1.1875 -0.984375 1.1875 -2.328125 C 1.1875 -3.765625 1.8125 -5.78125 3.59375 -5.78125 C 4.078125 -5.78125 4.40625 -5.640625 4.78125 -5.34375 L 5.09375 -5.65625 C 4.703125 -6.015625 4.265625 -6.234375 3.578125 -6.234375 Z M 3.578125 -6.234375 "/>
</g>
<g id="glyph-6-0">
<path d="M 2.921875 -3.703125 L 4.59375 -3.703125 C 4.71875 -3.703125 5.078125 -3.703125 5.078125 -4.046875 C 5.078125 -4.28125 4.875 -4.28125 4.6875 -4.28125 L 1.890625 -4.28125 C 1.703125 -4.28125 1.3125 -4.28125 0.875 -3.8125 C 0.546875 -3.453125 0.265625 -2.984375 0.265625 -2.921875 C 0.265625 -2.90625 0.265625 -2.828125 0.390625 -2.828125 C 0.46875 -2.828125 0.484375 -2.859375 0.546875 -2.9375 C 1.03125 -3.703125 1.59375 -3.703125 1.8125 -3.703125 L 2.640625 -3.703125 L 1.65625 -0.515625 C 1.625 -0.390625 1.5625 -0.1875 1.5625 -0.15625 C 1.5625 -0.046875 1.625 0.125 1.84375 0.125 C 2.171875 0.125 2.21875 -0.15625 2.25 -0.3125 Z M 2.921875 -3.703125 "/>
</g>
<g id="glyph-6-1">
<path d="M 2.015625 -0.015625 C 2.015625 -0.671875 1.765625 -1.046875 1.375 -1.046875 C 1.046875 -1.046875 0.859375 -0.8125 0.859375 -0.53125 C 0.859375 -0.265625 1.046875 0 1.375 0 C 1.5 0 1.625 -0.046875 1.734375 -0.125 C 1.765625 -0.15625 1.765625 -0.15625 1.78125 -0.15625 C 1.78125 -0.15625 1.796875 -0.15625 1.796875 -0.015625 C 1.796875 0.71875 1.453125 1.328125 1.125 1.65625 C 1.015625 1.765625 1.015625 1.78125 1.015625 1.8125 C 1.015625 1.875 1.0625 1.921875 1.109375 1.921875 C 1.21875 1.921875 2.015625 1.15625 2.015625 -0.015625 Z M 2.015625 -0.015625 "/>
</g>
<g id="glyph-7-0">
<path d="M 1.75 -3.96875 L 1.4375 -3.96875 L 0.25 -3.234375 L 0.421875 -2.984375 L 1.390625 -3.59375 L 1.390625 0 L 1.75 0 Z M 1.75 -3.96875 "/>
</g>
<g id="glyph-7-1">
<path d="M 1.34375 -4.03125 C 0.859375 -4.03125 0.515625 -3.84375 0.203125 -3.46875 L 0.4375 -3.28125 C 0.6875 -3.578125 0.9375 -3.75 1.328125 -3.75 C 1.78125 -3.75 2.078125 -3.4375 2.078125 -2.96875 C 2.078125 -2.28125 1.734375 -1.859375 0.25 -0.296875 L 0.25 0 L 2.5 0 L 2.546875 -0.296875 L 0.65625 -0.296875 C 2 -1.703125 2.4375 -2.203125 2.4375 -2.984375 C 2.4375 -3.59375 2.015625 -4.03125 1.34375 -4.03125 Z M 1.34375 -4.03125 "/>
</g>
<g id="glyph-7-2">
<path d="M 1.3125 -4.03125 C 0.890625 -4.03125 0.546875 -3.890625 0.234375 -3.59375 L 0.421875 -3.375 C 0.703125 -3.640625 0.96875 -3.75 1.296875 -3.75 C 1.765625 -3.75 2.0625 -3.46875 2.0625 -3.03125 C 2.0625 -2.484375 1.671875 -2.234375 1.25 -2.234375 L 1.0625 -2.234375 L 1.015625 -1.953125 L 1.265625 -1.953125 C 1.8125 -1.953125 2.171875 -1.71875 2.171875 -1.109375 C 2.171875 -0.59375 1.828125 -0.234375 1.25 -0.234375 C 0.90625 -0.234375 0.625 -0.34375 0.34375 -0.640625 L 0.125 -0.453125 C 0.421875 -0.109375 0.796875 0.0625 1.265625 0.0625 C 2.03125 0.0625 2.53125 -0.4375 2.53125 -1.125 C 2.53125 -1.75 2.125 -2.09375 1.625 -2.109375 C 2.078125 -2.1875 2.40625 -2.5 2.40625 -3.046875 C 2.40625 -3.59375 2.015625 -4.03125 1.3125 -4.03125 Z M 1.3125 -4.03125 "/>
</g>
<g id="glyph-8-0">
<path d="M 2.671875 -4.25 C 2.078125 -4.25 1.640625 -3.9375 1.296875 -3.46875 L 1.296875 -5.90625 L 0.828125 -5.859375 L 0.828125 0 L 1.296875 0 L 1.296875 -3.015625 C 1.625 -3.515625 2.015625 -3.875 2.578125 -3.875 C 3.078125 -3.875 3.359375 -3.59375 3.359375 -2.90625 L 3.359375 0 L 3.828125 0 L 3.828125 -2.96875 C 3.828125 -3.765625 3.421875 -4.25 2.671875 -4.25 Z M 2.671875 -4.25 "/>
</g>
<g id="glyph-8-1">
<path d="M 1.0625 -5.984375 C 0.84375 -5.984375 0.71875 -5.84375 0.71875 -5.65625 C 0.71875 -5.46875 0.84375 -5.328125 1.0625 -5.328125 C 1.265625 -5.328125 1.40625 -5.46875 1.40625 -5.65625 C 1.40625 -5.84375 1.265625 -5.984375 1.0625 -5.984375 Z M 1.296875 -4.15625 L 0.828125 -4.15625 L 0.828125 0 L 1.296875 0 Z M 1.296875 -4.15625 "/>
</g>
<g id="glyph-8-2">
<path d="M 3.3125 -5.90625 L 3.3125 -3.6875 C 3.0625 -3.984375 2.703125 -4.25 2.140625 -4.25 C 1.125 -4.25 0.515625 -3.34375 0.515625 -2.0625 C 0.515625 -0.734375 1.09375 0.09375 2.0625 0.09375 C 2.671875 0.09375 3.0625 -0.21875 3.3125 -0.640625 L 3.375 0 L 3.765625 0 L 3.765625 -5.859375 Z M 2.140625 -0.296875 C 1.4375 -0.296875 1 -0.90625 1 -2.0625 C 1 -3.234375 1.484375 -3.859375 2.21875 -3.859375 C 2.734375 -3.859375 3.0625 -3.59375 3.3125 -3.234375 L 3.3125 -1.0625 C 3.015625 -0.578125 2.6875 -0.296875 2.140625 -0.296875 Z M 2.140625 -0.296875 "/>
</g>
<g id="glyph-8-3">
<path d="M 3.796875 -2.234375 C 3.796875 -3.453125 3.25 -4.25 2.171875 -4.25 C 1.15625 -4.25 0.515625 -3.375 0.515625 -2.046875 C 0.515625 -0.703125 1.171875 0.09375 2.28125 0.09375 C 2.828125 0.09375 3.25 -0.109375 3.640625 -0.421875 L 3.421875 -0.71875 C 3.046875 -0.453125 2.75 -0.296875 2.296875 -0.296875 C 1.578125 -0.296875 1.0625 -0.765625 1 -1.90625 L 3.78125 -1.90625 C 3.78125 -1.984375 3.796875 -2.109375 3.796875 -2.234375 Z M 3.34375 -2.265625 L 1 -2.265625 C 1.046875 -3.375 1.546875 -3.859375 2.1875 -3.859375 C 2.96875 -3.859375 3.34375 -3.28125 3.34375 -2.375 Z M 3.34375 -2.265625 "/>
</g>
<g id="glyph-8-4">
<path d="M 2.671875 -4.25 C 2.078125 -4.25 1.609375 -3.921875 1.265625 -3.453125 L 1.234375 -4.15625 L 0.828125 -4.15625 L 0.828125 0 L 1.296875 0 L 1.296875 -3.015625 C 1.625 -3.515625 2.015625 -3.875 2.578125 -3.875 C 3.09375 -3.875 3.359375 -3.59375 3.359375 -2.90625 L 3.359375 0 L 3.828125 0 L 3.828125 -2.96875 C 3.828125 -3.78125 3.421875 -4.25 2.671875 -4.25 Z M 2.671875 -4.25 "/>
</g>
<g id="glyph-9-0">
<path d="M 4.3125 -5.453125 L 0.59375 -5.453125 L 0.53125 -5.03125 L 2.125 -5.03125 L 1.421875 0 L 1.90625 0 L 2.609375 -5.03125 L 4.203125 -5.03125 Z M 4.3125 -5.453125 "/>
</g>
<g id="glyph-9-1">
<path d="M 4.40625 -4.171875 C 4.40625 -5.015625 3.84375 -5.453125 2.6875 -5.453125 L 1.359375 -5.453125 L 0.578125 0 L 1.0625 0 L 1.40625 -2.4375 L 2.5 -2.4375 L 3.578125 0 L 4.109375 0 L 2.96875 -2.515625 C 4.03125 -2.75 4.40625 -3.484375 4.40625 -4.171875 Z M 1.453125 -2.828125 L 1.78125 -5.0625 L 2.65625 -5.0625 C 3.546875 -5.0625 3.90625 -4.765625 3.90625 -4.171875 C 3.90625 -3.5625 3.578125 -2.828125 2.40625 -2.828125 Z M 1.453125 -2.828125 "/>
</g>
<g id="glyph-9-2">
<path d="M 3.171875 -5.53125 C 1.28125 -5.53125 0.5625 -3.546875 0.5625 -2.09375 C 0.5625 -0.671875 1.328125 0.09375 2.421875 0.09375 C 3.078125 0.09375 3.578125 -0.15625 3.953125 -0.46875 L 3.734375 -0.796875 C 3.375 -0.546875 3.03125 -0.328125 2.453125 -0.328125 C 1.640625 -0.328125 1.0625 -0.875 1.0625 -2.0625 C 1.0625 -3.34375 1.609375 -5.125 3.1875 -5.125 C 3.625 -5.125 3.90625 -5.015625 4.25 -4.734375 L 4.53125 -5.03125 C 4.171875 -5.34375 3.78125 -5.53125 3.171875 -5.53125 Z M 3.171875 -5.53125 "/>
</g>
<g id="glyph-10-0">
<path d="M 2.984375 -5.40625 C 2.96875 -5.15625 2.890625 -4.9375 2.671875 -4.9375 C 2.46875 -4.9375 2.265625 -5.078125 2.171875 -5.140625 C 1.9375 -5.28125 1.75 -5.40625 1.53125 -5.40625 C 1.125 -5.40625 0.71875 -5.046875 0.703125 -4.40625 L 1.234375 -4.40625 C 1.234375 -4.671875 1.328125 -4.890625 1.546875 -4.890625 C 1.75 -4.890625 1.953125 -4.75 2.03125 -4.6875 C 2.28125 -4.53125 2.453125 -4.40625 2.6875 -4.40625 C 3.078125 -4.40625 3.5 -4.78125 3.5 -5.40625 Z M 2.984375 -5.40625 "/>
</g>
<g id="glyph-10-1">
<path d="M 5.8125 -2.671875 C 5.921875 -2.671875 6.09375 -2.671875 6.09375 -2.859375 C 6.09375 -3.03125 5.921875 -3.03125 5.8125 -3.03125 L 0.75 -3.03125 C 0.640625 -3.03125 0.46875 -3.03125 0.46875 -2.859375 C 0.46875 -2.671875 0.640625 -2.671875 0.75 -2.671875 Z M 5.8125 -0.9375 C 5.921875 -0.9375 6.09375 -0.9375 6.09375 -1.125 C 6.09375 -1.296875 5.921875 -1.296875 5.8125 -1.296875 L 0.75 -1.296875 C 0.640625 -1.296875 0.46875 -1.296875 0.46875 -1.125 C 0.46875 -0.9375 0.640625 -0.9375 0.75 -0.9375 Z M 5.8125 -0.9375 "/>
</g>
<g id="glyph-11-0">
<path d="M 2.609375 -3.0625 C 2.640625 -3.0625 2.859375 -3.0625 2.875 -3.046875 L 3.203125 -3.046875 C 5.234375 -3.046875 5.953125 -4 5.953125 -4.9375 C 5.953125 -6.34375 4.6875 -6.8125 3.40625 -6.8125 L 0.5 -6.8125 C 0.3125 -6.8125 0.15625 -6.8125 0.15625 -6.625 C 0.15625 -6.453125 0.34375 -6.453125 0.421875 -6.453125 C 0.9375 -6.453125 0.984375 -6.375 0.984375 -5.890625 L 0.984375 -0.921875 C 0.984375 -0.421875 0.9375 -0.34375 0.4375 -0.34375 C 0.34375 -0.34375 0.15625 -0.34375 0.15625 -0.171875 C 0.15625 0 0.3125 0 0.5 0 L 3.15625 0 C 3.34375 0 3.484375 0 3.484375 -0.171875 C 3.484375 -0.34375 3.3125 -0.34375 3.203125 -0.34375 C 2.640625 -0.34375 2.609375 -0.421875 2.609375 -0.921875 Z M 4.25 -3.515625 C 4.5625 -3.921875 4.59375 -4.546875 4.59375 -4.953125 C 4.59375 -5.46875 4.546875 -6 4.28125 -6.375 C 4.828125 -6.234375 5.609375 -5.9375 5.609375 -4.9375 C 5.609375 -4.25 5.15625 -3.734375 4.25 -3.515625 Z M 2.609375 -5.921875 C 2.609375 -6.125 2.609375 -6.453125 3.203125 -6.453125 C 3.921875 -6.453125 4.25 -6.1875 4.25 -4.953125 C 4.25 -3.53125 3.71875 -3.40625 3.09375 -3.40625 L 2.609375 -3.40625 Z M 1.25 -0.34375 C 1.328125 -0.53125 1.328125 -0.765625 1.328125 -0.890625 L 1.328125 -5.90625 C 1.328125 -6.046875 1.328125 -6.28125 1.25 -6.453125 L 2.390625 -6.453125 C 2.25 -6.296875 2.25 -6.109375 2.25 -5.953125 L 2.25 -0.890625 C 2.25 -0.796875 2.25 -0.53125 2.328125 -0.34375 Z M 1.25 -0.34375 "/>
</g>
<g id="glyph-12-0">
<path d="M 5.5625 -3.3125 C 5.5625 -3.578125 5.484375 -3.953125 5.15625 -3.953125 C 4.921875 -3.953125 4.703125 -3.734375 4.703125 -3.515625 C 4.703125 -3.359375 4.75 -3.34375 4.8125 -3.28125 C 4.9375 -3.15625 5.140625 -2.9375 5.140625 -2.484375 C 5.140625 -1.9375 4.578125 -0.5625 3.65625 -0.5625 C 3.15625 -0.5625 2.875 -0.921875 2.78125 -1.296875 C 2.78125 -1.421875 3.09375 -2.0625 3.09375 -2.390625 C 3.09375 -2.5 3.03125 -2.609375 2.90625 -2.609375 C 2.828125 -2.609375 2.75 -2.578125 2.6875 -2.515625 C 2.53125 -2.296875 2.4375 -1.578125 2.4375 -1.359375 C 2.15625 -0.9375 1.765625 -0.578125 1.234375 -0.578125 C 0.65625 -0.578125 0.453125 -1.0625 0.453125 -1.578125 C 0.453125 -2.25 0.71875 -2.859375 1.296875 -3.609375 C 1.34375 -3.6875 1.34375 -3.71875 1.34375 -3.765625 C 1.34375 -3.84375 1.265625 -3.90625 1.1875 -3.90625 C 1.09375 -3.90625 1.015625 -3.84375 0.96875 -3.765625 C 0.484375 -3.078125 0.125 -2.09375 0.125 -1.234375 C 0.125 -0.53125 0.359375 0.09375 1.15625 0.09375 C 1.71875 0.09375 2.234375 -0.390625 2.5 -0.796875 C 2.609375 -0.4375 2.828125 0.09375 3.546875 0.09375 C 4.234375 0.09375 4.6875 -0.46875 5.03125 -1.171875 C 5.203125 -1.515625 5.3125 -1.90625 5.40625 -2.28125 C 5.484375 -2.671875 5.5625 -3.03125 5.5625 -3.3125 Z M 5.5625 -3.3125 "/>
</g>
</g>
<clipPath id="clip-0">
<path clip-rule="nonzero" d="M 177 0.132812 L 313 0.132812 L 313 69 L 177 69 Z M 177 0.132812 "/>
</clipPath>
</defs>
<path fill="none" stroke-width="0.79701" stroke-linecap="butt" stroke-linejoin="miter" stroke="rgb(29.998779%, 29.998779%, 29.998779%)" stroke-opacity="1" stroke-miterlimit="10" d="M -5.669875 -0.00000167055 L 311.018992 -0.00000167055 " transform="matrix(0.997677, 0, 0, -0.997677, 46.949671, 157.640623)"/>
<path fill="none" stroke-width="0.79701" stroke-linecap="round" stroke-linejoin="round" stroke="rgb(29.998779%, 29.998779%, 29.998779%)" stroke-opacity="1" stroke-miterlimit="10" d="M -2.550848 3.112699 C -2.084922 1.245078 -1.047355 0.364126 0.00195743 -0.00000167055 C -1.047355 -0.364129 -2.084922 -1.245082 -2.550848 -3.112702 " transform="matrix(0.997677, 0, 0, -0.997677, 357.642578, 157.640623)"/>
<g fill="rgb(29.998779%, 29.998779%, 29.998779%)" fill-opacity="1">
<use xlink:href="#glyph-0-0" x="361.746622" y="168.835554"/>
<use xlink:href="#glyph-0-1" x="365.165808" y="168.835554"/>
<use xlink:href="#glyph-0-2" x="367.819653" y="168.835554"/>
<use xlink:href="#glyph-0-3" x="376.258283" y="168.835554"/>
</g>
<g fill="rgb(29.998779%, 29.998779%, 29.998779%)" fill-opacity="1">
<use xlink:href="#glyph-1-0" x="384.348989" y="168.835554"/>
</g>
<path fill="none" stroke-width="0.79701" stroke-linecap="butt" stroke-linejoin="miter" stroke="rgb(29.998779%, 29.998779%, 29.998779%)" stroke-opacity="1" stroke-miterlimit="10" d="M -0.000453313 -14.173555 L -0.000453313 84.242588 " transform="matrix(0.997677, 0, 0, -0.997677, 46.949671, 157.640623)"/>
<path fill="none" stroke-width="0.79701" stroke-linecap="round" stroke-linejoin="round" stroke="rgb(29.998779%, 29.998779%, 29.998779%)" stroke-opacity="1" stroke-miterlimit="10" d="M -2.548857 3.109238 C -2.08293 1.245533 -1.045364 0.364581 0.0000337562 0.000453313 C -1.045364 -0.363674 -2.08293 -1.244627 -2.548857 -3.112247 " transform="matrix(0, -0.997677, -0.997677, 0, 46.949671, 73.195346)"/>
<g fill="rgb(29.998779%, 29.998779%, 29.998779%)" fill-opacity="1">
<use xlink:href="#glyph-2-0" x="37.942645" y="66.603616"/>
</g>
<g fill="rgb(29.998779%, 29.998779%, 29.998779%)" fill-opacity="1">
<use xlink:href="#glyph-3-0" x="44.707891" y="66.603616"/>
</g>
<g fill="rgb(29.998779%, 29.998779%, 29.998779%)" fill-opacity="1">
<use xlink:href="#glyph-1-0" x="48.572891" y="66.603616"/>
</g>
<g fill="rgb(29.998779%, 29.998779%, 29.998779%)" fill-opacity="1">
<use xlink:href="#glyph-3-1" x="52.091697" y="66.603616"/>
</g>
<path fill="none" stroke-width="0.3985" stroke-linecap="butt" stroke-linejoin="miter" stroke="rgb(84.999084%, 84.999084%, 84.999084%)" stroke-opacity="1" stroke-dasharray="2.98883 2.98883" stroke-miterlimit="10" d="M -0.000453313 -0.00000167055 L 297.640254 -0.00000167055 " transform="matrix(0.997677, 0, 0, -0.997677, 46.949671, 157.640623)"/>
<path fill="none" stroke-width="0.3985" stroke-linecap="butt" stroke-linejoin="miter" stroke="rgb(34.999084%, 34.999084%, 34.999084%)" stroke-opacity="1" stroke-miterlimit="10" d="M -2.835164 -0.00000167055 L 2.834257 -0.00000167055 " transform="matrix(0.997677, 0, 0, -0.997677, 46.949671, 157.640623)"/>
<g fill="rgb(0%, 0%, 0%)" fill-opacity="1">
<use xlink:href="#glyph-4-0" x="6.974758" y="160.771333"/>
</g>
<g fill="rgb(0%, 0%, 0%)" fill-opacity="1">
<use xlink:href="#glyph-4-1" x="14.390618" y="160.771333"/>
<use xlink:href="#glyph-4-2" x="17.288976" y="160.771333"/>
<use xlink:href="#glyph-4-3" x="22.343211" y="160.771333"/>
<use xlink:href="#glyph-4-4" x="24.937421" y="160.771333"/>
<use xlink:href="#glyph-4-5" x="27.325882" y="160.771333"/>
</g>
<g fill="rgb(0%, 0%, 0%)" fill-opacity="1">
<use xlink:href="#glyph-4-6" x="31.512399" y="160.771333"/>
<use xlink:href="#glyph-4-7" x="36.298268" y="160.771333"/>
</g>
<path fill="none" stroke-width="0.3985" stroke-linecap="butt" stroke-linejoin="miter" stroke="rgb(84.999084%, 84.999084%, 84.999084%)" stroke-opacity="1" stroke-dasharray="2.98883 2.98883" stroke-miterlimit="10" d="M -0.000453313 28.347105 L 297.640254 28.347105 " transform="matrix(0.997677, 0, 0, -0.997677, 46.949671, 157.640623)"/>
<path fill="none" stroke-width="0.3985" stroke-linecap="butt" stroke-linejoin="miter" stroke="rgb(34.999084%, 34.999084%, 34.999084%)" stroke-opacity="1" stroke-miterlimit="10" d="M -2.835164 28.347105 L 2.834257 28.347105 " transform="matrix(0.997677, 0, 0, -0.997677, 46.949671, 157.640623)"/>
<g fill="rgb(0%, 0%, 0%)" fill-opacity="1">
<use xlink:href="#glyph-4-8" x="21.957868" y="132.491187"/>
</g>
<g fill="rgb(0%, 0%, 0%)" fill-opacity="1">
<use xlink:href="#glyph-4-1" x="28.148188" y="132.491187"/>
</g>
<g fill="rgb(0%, 0%, 0%)" fill-opacity="1">
<use xlink:href="#glyph-5-0" x="31.046703" y="132.491187"/>
</g>
<g fill="rgb(0%, 0%, 0%)" fill-opacity="1">
<use xlink:href="#glyph-4-7" x="36.298474" y="132.491187"/>
</g>
<path fill="none" stroke-width="0.3985" stroke-linecap="butt" stroke-linejoin="miter" stroke="rgb(84.999084%, 84.999084%, 84.999084%)" stroke-opacity="1" stroke-dasharray="2.98883 2.98883" stroke-miterlimit="10" d="M -0.000453313 56.694212 L 297.640254 56.694212 " transform="matrix(0.997677, 0, 0, -0.997677, 46.949671, 157.640623)"/>
<path fill="none" stroke-width="0.3985" stroke-linecap="butt" stroke-linejoin="miter" stroke="rgb(34.999084%, 34.999084%, 34.999084%)" stroke-opacity="1" stroke-miterlimit="10" d="M -2.835164 56.694212 L 2.834257 56.694212 " transform="matrix(0.997677, 0, 0, -0.997677, 46.949671, 157.640623)"/>
<g fill="rgb(0%, 0%, 0%)" fill-opacity="1">
<use xlink:href="#glyph-4-9" x="6.294343" y="104.210044"/>
</g>
<g fill="rgb(0%, 0%, 0%)" fill-opacity="1">
<use xlink:href="#glyph-4-1" x="13.075069" y="104.210044"/>
<use xlink:href="#glyph-4-10" x="15.973427" y="104.210044"/>
<use xlink:href="#glyph-4-6" x="21.627014" y="104.210044"/>
</g>
<g fill="rgb(0%, 0%, 0%)" fill-opacity="1">
<use xlink:href="#glyph-4-11" x="26.368155" y="104.210044"/>
<use xlink:href="#glyph-4-12" x="31.118241" y="104.210044"/>
<use xlink:href="#glyph-4-7" x="36.297714" y="104.210044"/>
</g>
<path fill="none" stroke-width="0.398" stroke-linecap="butt" stroke-linejoin="miter" stroke="rgb(0%, 0%, 0%)" stroke-opacity="1" stroke-miterlimit="10" d="M -0.000403779 -0.00165663 L 5.481081 -0.00165663 " transform="matrix(0.997677, 0, 0, -0.997677, 341.160559, 164.576472)"/>
<g fill="rgb(0%, 0%, 0%)" fill-opacity="1">
<use xlink:href="#glyph-6-0" x="341.160559" y="170.247267"/>
</g>
<path fill="none" stroke-width="0.3985" stroke-linecap="butt" stroke-linejoin="miter" stroke="rgb(0%, 0%, 0%)" stroke-opacity="1" stroke-miterlimit="10" d="M 297.640254 -2.834712 L 297.640254 2.834709 " transform="matrix(0.997677, 0, 0, -0.997677, 46.949671, 157.640623)"/>
<path fill="none" stroke-width="0.79701" stroke-linecap="butt" stroke-linejoin="miter" stroke="rgb(0%, 0%, 79.998779%)" stroke-opacity="1" stroke-dasharray="0.79701 0.99628" stroke-miterlimit="10" d="M 226.776402 -8.504134 L 226.776402 75.119832 " transform="matrix(0.997677, 0, 0, -0.997677, 46.949671, 157.640623)"/>
<g fill="rgb(0%, 0%, 79.998779%)" fill-opacity="1">
<use xlink:href="#glyph-5-1" x="269.267971" y="77.993094"/>
</g>
<g fill="rgb(0%, 0%, 79.998779%)" fill-opacity="1">
<use xlink:href="#glyph-7-0" x="274.161576" y="78.98678"/>
</g>
<path fill="none" stroke-width="0.79701" stroke-linecap="butt" stroke-linejoin="miter" stroke="rgb(89.99939%, 44.999695%, 0%)" stroke-opacity="1" stroke-dasharray="0.79701 0.99628" stroke-miterlimit="10" d="M 113.387974 -8.504134 L 113.387974 75.119832 " transform="matrix(0.997677, 0, 0, -0.997677, 46.949671, 157.640623)"/>
<g fill="rgb(89.99939%, 44.999695%, 0%)" fill-opacity="1">
<use xlink:href="#glyph-5-1" x="155.948851" y="77.993094"/>
</g>
<g fill="rgb(89.99939%, 44.999695%, 0%)" fill-opacity="1">
<use xlink:href="#glyph-7-1" x="160.842455" y="78.98678"/>
</g>
<path fill="none" stroke-width="0.79701" stroke-linecap="butt" stroke-linejoin="miter" stroke="rgb(59.999084%, 0%, 19.999695%)" stroke-opacity="1" stroke-dasharray="0.79701 0.99628" stroke-miterlimit="10" d="M 141.735081 -8.504134 L 141.735081 75.119832 " transform="matrix(0.997677, 0, 0, -0.997677, 46.949671, 157.640623)"/>
<g fill="rgb(59.999084%, 0%, 19.999695%)" fill-opacity="1">
<use xlink:href="#glyph-5-1" x="184.209043" y="77.927247"/>
</g>
<g fill="rgb(59.999084%, 0%, 19.999695%)" fill-opacity="1">
<use xlink:href="#glyph-7-2" x="189.10165" y="78.920933"/>
</g>
<path fill="none" stroke-width="1.59404" stroke-linecap="butt" stroke-linejoin="miter" stroke="rgb(89.99939%, 44.999695%, 0%)" stroke-opacity="0.4" stroke-dasharray="2.98883 2.98883" stroke-miterlimit="10" d="M 113.387974 -0.00000167055 L 212.602849 -0.00000167055 L 212.602849 56.694212 L 297.640254 56.694212 " transform="matrix(0.997677, 0, 0, -0.997677, 46.949671, 157.640623)"/>
<path fill-rule="nonzero" fill="rgb(89.99939%, 44.999695%, 0%)" fill-opacity="0.4" d="M 261.867188 101.078125 C 261.867188 99.527344 260.609375 98.265625 259.058594 98.265625 C 257.503906 98.265625 256.246094 99.527344 256.246094 101.078125 C 256.246094 102.632812 257.503906 103.890625 259.058594 103.890625 C 260.609375 103.890625 261.867188 102.632812 261.867188 101.078125 Z M 261.867188 101.078125 "/>
<g fill="rgb(89.99939%, 44.999695%, 0%)" fill-opacity="0.4">
<use xlink:href="#glyph-8-0" x="218.397431" y="111.427238"/>
<use xlink:href="#glyph-8-1" x="223.017306" y="111.427238"/>
<use xlink:href="#glyph-8-2" x="225.140382" y="111.427238"/>
<use xlink:href="#glyph-8-2" x="229.744355" y="111.427238"/>
<use xlink:href="#glyph-8-3" x="234.348327" y="111.427238"/>
<use xlink:href="#glyph-8-4" x="238.60243" y="111.427238"/>
</g>
<g fill="rgb(89.99939%, 44.999695%, 0%)" fill-opacity="0.4">
<use xlink:href="#glyph-9-0" x="245.440457" y="111.427238"/>
</g>
<g fill="rgb(89.99939%, 44.999695%, 0%)" fill-opacity="0.4">
<use xlink:href="#glyph-7-1" x="249.361327" y="112.719229"/>
</g>
<path fill="none" stroke-width="1.59404" stroke-linecap="butt" stroke-linejoin="miter" stroke="rgb(59.999084%, 0%, 19.999695%)" stroke-opacity="0.4" stroke-dasharray="2.98883 2.98883" stroke-miterlimit="10" d="M 141.735081 25.512395 L 255.119594 25.512395 L 255.119594 53.859501 L 297.640254 53.859501 " transform="matrix(0.997677, 0, 0, -0.997677, 46.949671, 157.640623)"/>
<path fill-rule="nonzero" fill="rgb(59.999084%, 0%, 19.999695%)" fill-opacity="0.4" d="M 304.289062 103.90625 C 304.289062 102.355469 303.03125 101.09375 301.476562 101.09375 C 299.925781 101.09375 298.667969 102.355469 298.667969 103.90625 C 298.667969 105.460938 299.925781 106.71875 301.476562 106.71875 C 303.03125 106.71875 304.289062 105.460938 304.289062 103.90625 Z M 304.289062 103.90625 "/>
<g fill="rgb(59.999084%, 0%, 19.999695%)" fill-opacity="0.4">
<use xlink:href="#glyph-8-0" x="306.400503" y="117.64875"/>
<use xlink:href="#glyph-8-1" x="311.020379" y="117.64875"/>
<use xlink:href="#glyph-8-2" x="313.143454" y="117.64875"/>
<use xlink:href="#glyph-8-2" x="317.747427" y="117.64875"/>
<use xlink:href="#glyph-8-3" x="322.3514" y="117.64875"/>
<use xlink:href="#glyph-8-4" x="326.605502" y="117.64875"/>
</g>
<g fill="rgb(59.999084%, 0%, 19.999695%)" fill-opacity="0.4">
<use xlink:href="#glyph-9-0" x="333.444527" y="117.64875"/>
</g>
<g fill="rgb(59.999084%, 0%, 19.999695%)" fill-opacity="0.4">
<use xlink:href="#glyph-7-2" x="337.364399" y="118.940742"/>
</g>
<path fill="none" stroke-width="1.59404" stroke-linecap="butt" stroke-linejoin="miter" stroke="rgb(0%, 0%, 79.998779%)" stroke-opacity="1" stroke-miterlimit="10" d="M -0.000453313 2.834709 L 85.040867 2.834709 L 85.040867 31.181816 L 170.082188 31.181816 L 170.082188 59.528923 L 297.640254 59.528923 " transform="matrix(0.997677, 0, 0, -0.997677, 46.949671, 157.640623)"/>
<path fill-rule="nonzero" fill="rgb(0%, 0%, 79.998779%)" fill-opacity="1" d="M 134.605469 126.53125 C 134.605469 124.980469 133.34375 123.71875 131.792969 123.71875 C 130.238281 123.71875 128.980469 124.980469 128.980469 126.53125 C 128.980469 128.085938 130.238281 129.34375 131.792969 129.34375 C 133.34375 129.34375 134.605469 128.085938 134.605469 126.53125 Z M 134.605469 126.53125 "/>
<g fill="rgb(0%, 0%, 79.998779%)" fill-opacity="1">
<use xlink:href="#glyph-10-0" x="120.874526" y="119.880553"/>
</g>
<g fill="rgb(0%, 0%, 79.998779%)" fill-opacity="1">
<use xlink:href="#glyph-9-1" x="120.652045" y="121.793099"/>
</g>
<g fill="rgb(0%, 0%, 79.998779%)" fill-opacity="1">
<use xlink:href="#glyph-7-0" x="125.320174" y="123.020242"/>
</g>
<path fill-rule="nonzero" fill="rgb(0%, 0%, 79.998779%)" fill-opacity="1" d="M 219.445312 98.25 C 219.445312 96.699219 218.1875 95.4375 216.636719 95.4375 C 215.082031 95.4375 213.824219 96.699219 213.824219 98.25 C 213.824219 99.804688 215.082031 101.0625 216.636719 101.0625 C 218.1875 101.0625 219.445312 99.804688 219.445312 98.25 Z M 219.445312 98.25 "/>
<g fill="rgb(0%, 0%, 79.998779%)" fill-opacity="1">
<use xlink:href="#glyph-10-0" x="206.367444" y="91.59941"/>
</g>
<g fill="rgb(0%, 0%, 79.998779%)" fill-opacity="1">
<use xlink:href="#glyph-9-0" x="206.241737" y="93.512954"/>
</g>
<g fill="rgb(0%, 0%, 79.998779%)" fill-opacity="1">
<use xlink:href="#glyph-7-0" x="210.161609" y="94.739098"/>
</g>
<path fill="none" stroke-width="1.59404" stroke-linecap="butt" stroke-linejoin="miter" stroke="rgb(89.99939%, 44.999695%, 0%)" stroke-opacity="1" stroke-miterlimit="10" d="M -0.000453313 -0.00000167055 L 113.387974 -0.00000167055 " transform="matrix(0.997677, 0, 0, -0.997677, 46.949671, 157.640623)"/>
<path fill="none" stroke-width="1.59404" stroke-linecap="butt" stroke-linejoin="miter" stroke="rgb(89.99939%, 44.999695%, 0%)" stroke-opacity="1" stroke-miterlimit="10" d="M 113.387974 -2.834712 L 113.387974 2.834709 " transform="matrix(0.997677, 0, 0, -0.997677, 46.949671, 157.640623)"/>
<path fill-rule="nonzero" fill="rgb(100%, 100%, 100%)" fill-opacity="1" stroke-width="0.79701" stroke-linecap="butt" stroke-linejoin="miter" stroke="rgb(89.99939%, 44.999695%, 0%)" stroke-opacity="1" stroke-miterlimit="10" d="M 115.925119 -0.00000167055 C 115.925119 1.401692 114.789668 2.537143 113.387974 2.537143 C 111.98628 2.537143 110.85083 1.401692 110.85083 -0.00000167055 C 110.85083 -1.401696 111.98628 -2.537146 113.387974 -2.537146 C 114.789668 -2.537146 115.925119 -1.401696 115.925119 -0.00000167055 Z M 115.925119 -0.00000167055 " transform="matrix(0.997677, 0, 0, -0.997677, 46.949671, 157.640623)"/>
<g fill="rgb(89.99939%, 44.999695%, 0%)" fill-opacity="1">
<use xlink:href="#glyph-10-0" x="147.077509" y="175.044097"/>
</g>
<g fill="rgb(89.99939%, 44.999695%, 0%)" fill-opacity="1">
<use xlink:href="#glyph-9-0" x="146.951802" y="176.956643"/>
</g>
<g fill="rgb(89.99939%, 44.999695%, 0%)" fill-opacity="1">
<use xlink:href="#glyph-7-1" x="150.871674" y="178.249632"/>
</g>
<g fill="rgb(89.99939%, 44.999695%, 0%)" fill-opacity="1">
<use xlink:href="#glyph-10-1" x="156.572399" y="176.956643"/>
</g>
<g fill="rgb(89.99939%, 44.999695%, 0%)" fill-opacity="1">
<use xlink:href="#glyph-9-2" x="165.489634" y="176.956643"/>
</g>
<g fill="rgb(89.99939%, 44.999695%, 0%)" fill-opacity="1">
<use xlink:href="#glyph-7-1" x="169.839505" y="178.249632"/>
</g>
<path fill="none" stroke-width="1.59404" stroke-linecap="butt" stroke-linejoin="miter" stroke="rgb(59.999084%, 0%, 19.999695%)" stroke-opacity="1" stroke-miterlimit="10" d="M -0.000453313 -2.834712 L 56.693761 -2.834712 L 56.693761 25.512395 L 141.735081 25.512395 " transform="matrix(0.997677, 0, 0, -0.997677, 46.949671, 157.640623)"/>
<path fill-rule="nonzero" fill="rgb(59.999084%, 0%, 19.999695%)" fill-opacity="1" d="M 106.324219 132.1875 C 106.324219 130.636719 105.0625 129.375 103.511719 129.375 C 101.957031 129.375 100.699219 130.636719 100.699219 132.1875 C 100.699219 133.742188 101.957031 135 103.511719 135 C 105.0625 135 106.324219 133.742188 106.324219 132.1875 Z M 106.324219 132.1875 "/>
<g fill="rgb(59.999084%, 0%, 19.999695%)" fill-opacity="1">
<use xlink:href="#glyph-10-0" x="92.158396" y="125.405687"/>
</g>
<g fill="rgb(59.999084%, 0%, 19.999695%)" fill-opacity="1">
<use xlink:href="#glyph-9-1" x="91.936912" y="127.318233"/>
</g>
<g fill="rgb(59.999084%, 0%, 19.999695%)" fill-opacity="1">
<use xlink:href="#glyph-7-2" x="96.604044" y="128.611222"/>
</g>
<path fill="none" stroke-width="1.59404" stroke-linecap="butt" stroke-linejoin="miter" stroke="rgb(59.999084%, 0%, 19.999695%)" stroke-opacity="1" stroke-miterlimit="10" d="M 141.735081 22.677684 L 141.735081 28.347105 " transform="matrix(0.997677, 0, 0, -0.997677, 46.949671, 157.640623)"/>
<path fill-rule="nonzero" fill="rgb(100%, 100%, 100%)" fill-opacity="1" stroke-width="0.79701" stroke-linecap="butt" stroke-linejoin="miter" stroke="rgb(59.999084%, 0%, 19.999695%)" stroke-opacity="1" stroke-miterlimit="10" d="M 144.26831 25.512395 C 144.26831 26.914089 143.13286 28.049539 141.735081 28.049539 C 140.333387 28.049539 139.197937 26.914089 139.197937 25.512395 C 139.197937 24.110701 140.333387 22.97525 141.735081 22.97525 C 143.13286 22.97525 144.26831 24.110701 144.26831 25.512395 Z M 144.26831 25.512395 " transform="matrix(0.997677, 0, 0, -0.997677, 46.949671, 157.640623)"/>
<g fill="rgb(59.999084%, 0%, 19.999695%)" fill-opacity="1">
<use xlink:href="#glyph-10-0" x="191.990922" y="143.935538"/>
</g>
<g fill="rgb(59.999084%, 0%, 19.999695%)" fill-opacity="1">
<use xlink:href="#glyph-9-0" x="191.864217" y="145.848084"/>
</g>
<g fill="rgb(59.999084%, 0%, 19.999695%)" fill-opacity="1">
<use xlink:href="#glyph-7-2" x="195.784089" y="147.140075"/>
</g>
<g fill="rgb(59.999084%, 0%, 19.999695%)" fill-opacity="1">
<use xlink:href="#glyph-10-1" x="201.526716" y="145.848084"/>
</g>
<g fill="rgb(59.999084%, 0%, 19.999695%)" fill-opacity="1">
<use xlink:href="#glyph-9-2" x="210.444949" y="145.848084"/>
</g>
<g fill="rgb(59.999084%, 0%, 19.999695%)" fill-opacity="1">
<use xlink:href="#glyph-7-2" x="214.79482" y="147.140075"/>
</g>
<path fill-rule="nonzero" fill="rgb(97.499084%, 97.499084%, 97.499084%)" fill-opacity="1" d="M 255.597656 11.707031 C 254.386719 7.179688 249.601562 3.511719 244.917969 3.511719 C 240.230469 3.511719 235.445312 7.179688 234.234375 11.707031 C 232.511719 7.6875 227.605469 4.933594 223.273438 5.554688 C 218.945312 6.179688 215.011719 10.207031 214.496094 14.550781 C 212.523438 11.648438 208.242188 10.230469 204.925781 11.378906 C 201.613281 12.53125 199.132812 16.304688 199.386719 19.800781 C 197.46875 18.460938 194.460938 18.589844 192.667969 20.09375 C 190.871094 21.601562 190.21875 24.542969 191.207031 26.664062 C 189.636719 27.085938 188.359375 28.746094 188.359375 30.375 C 188.359375 32.003906 189.636719 33.667969 191.207031 34.089844 C 190.21875 36.210938 190.871094 39.152344 192.664062 40.65625 C 194.457031 42.160156 197.46875 42.292969 199.386719 40.949219 C 199.132812 44.449219 201.609375 48.21875 204.925781 49.371094 C 208.238281 50.523438 212.523438 49.105469 214.496094 46.203125 C 215.011719 50.546875 218.945312 54.574219 223.273438 55.195312 C 227.601562 55.820312 232.511719 53.066406 234.234375 49.046875 C 235.445312 53.570312 240.230469 57.242188 244.917969 57.242188 C 249.601562 57.242188 254.386719 53.570312 255.597656 49.046875 C 257.320312 53.066406 262.230469 55.820312 266.558594 55.195312 C 270.886719 54.574219 274.820312 50.546875 275.339844 46.203125 C 277.308594 49.105469 281.59375 50.523438 284.90625 49.371094 C 288.21875 48.21875 290.703125 44.449219 290.445312 40.949219 C 292.363281 42.292969 295.375 42.160156 297.167969 40.65625 C 298.960938 39.152344 299.613281 36.210938 298.625 34.089844 C 300.195312 33.667969 301.472656 32.003906 301.472656 30.375 C 301.472656 28.746094 300.195312 27.085938 298.625 26.664062 C 299.613281 24.542969 298.960938 21.601562 297.167969 20.097656 C 295.375 18.59375 292.363281 18.460938 290.445312 19.800781 C 290.703125 16.304688 288.222656 12.53125 284.910156 11.382812 C 281.59375 10.230469 277.308594 11.648438 275.339844 14.550781 C 274.820312 10.207031 270.890625 6.179688 266.558594 5.558594 C 262.230469 4.933594 257.320312 7.6875 255.597656 11.707031 Z M 255.597656 11.707031 "/>
<g clip-path="url(#clip-0)">
<path fill="none" stroke-width="0.79701" stroke-linecap="butt" stroke-linejoin="miter" stroke="rgb(29.998779%, 29.998779%, 29.998779%)" stroke-opacity="1" stroke-miterlimit="10" d="M 209.133852 146.273419 C 207.920094 150.811306 203.123795 154.487816 198.429295 154.487816 C 193.73088 154.487816 188.93458 150.811306 187.720823 146.273419 C 185.994155 150.302311 181.07648 153.06263 176.734361 152.44009 C 172.396158 151.813634 168.453404 147.776912 167.936578 143.423047 C 165.959329 146.332149 161.668109 147.75342 158.34398 146.602308 C 155.023766 145.447281 152.537522 141.665057 152.792019 138.160822 C 150.869584 139.503786 147.854767 139.374579 146.057624 137.867171 C 144.256564 136.355847 143.602701 133.407591 144.593284 131.281558 C 143.019315 130.858701 141.738997 129.194679 141.738997 127.561979 C 141.738997 125.92928 143.019315 124.261343 144.593284 123.838485 C 143.602701 121.712452 144.256564 118.764196 146.053708 117.256788 C 147.850852 115.74938 150.869584 115.616258 152.792019 116.963137 C 152.537522 113.454987 155.019851 109.676678 158.34398 108.521651 C 161.664194 107.366623 165.959329 108.787894 167.936578 111.696996 C 168.453404 107.343131 172.396158 103.306409 176.734361 102.683869 C 181.072565 102.057414 185.994155 104.817733 187.720823 108.846624 C 188.93458 104.312653 193.73088 100.632228 198.429295 100.632228 C 203.123795 100.632228 207.920094 104.312653 209.133852 108.846624 C 210.860519 104.817733 215.78211 102.057414 220.120313 102.683869 C 224.458517 103.306409 228.401271 107.343131 228.922012 111.696996 C 230.895346 108.787894 235.190481 107.366623 238.510695 108.521651 C 241.830908 109.676678 244.321069 113.454987 244.062656 116.963137 C 245.985091 115.616258 249.003823 115.74938 250.800967 117.256788 C 252.598111 118.764196 253.251973 121.712452 252.261391 123.838485 C 253.83536 124.261343 255.115678 125.92928 255.115678 127.561979 C 255.115678 129.194679 253.83536 130.858701 252.261391 131.281558 C 253.251973 133.407591 252.598111 136.355847 250.800967 137.863255 C 249.003823 139.370664 245.985091 139.503786 244.062656 138.160822 C 244.321069 141.665057 241.834824 145.447281 238.51461 146.598393 C 235.190481 147.75342 230.895346 146.332149 228.922012 143.423047 C 228.401271 147.776912 224.462432 151.813634 220.120313 152.436174 C 215.78211 153.06263 210.860519 150.302311 209.133852 146.273419 Z M 209.133852 146.273419 " transform="matrix(0.997677, 0, 0, -0.997677, 46.949671, 157.640623)"/>
</g>
<g fill="rgb(0%, 0%, 0%)" fill-opacity="1">
<use xlink:href="#glyph-3-0" x="225.938869" y="32.863185"/>
<use xlink:href="#glyph-3-2" x="229.804339" y="32.863185"/>
</g>
<g fill="rgb(0%, 0%, 0%)" fill-opacity="1">
<use xlink:href="#glyph-6-1" x="236.983151" y="32.863185"/>
</g>
<g fill="rgb(0%, 0%, 0%)" fill-opacity="1">
<use xlink:href="#glyph-2-1" x="241.400864" y="32.863185"/>
</g>
<g fill="rgb(0%, 0%, 0%)" fill-opacity="1">
<use xlink:href="#glyph-6-1" x="249.531929" y="32.863185"/>
</g>
<g fill="rgb(0%, 0%, 0%)" fill-opacity="1">
<use xlink:href="#glyph-11-0" x="253.949642" y="32.863185"/>
</g>
<g fill="rgb(0%, 0%, 0%)" fill-opacity="1">
<use xlink:href="#glyph-3-1" x="260.023498" y="32.863185"/>
</g>
<path fill-rule="nonzero" fill="rgb(0%, 0%, 79.998779%)" fill-opacity="1" d="M 219.445312 44.515625 C 219.445312 42.964844 218.1875 41.707031 216.636719 41.707031 C 215.082031 41.707031 213.824219 42.964844 213.824219 44.515625 C 213.824219 46.070312 215.082031 47.328125 216.636719 47.328125 C 218.1875 47.328125 219.445312 46.070312 219.445312 44.515625 Z M 219.445312 44.515625 "/>
<g fill="rgb(0%, 0%, 79.998779%)" fill-opacity="1">
<use xlink:href="#glyph-12-0" x="212.293644" y="37.002546"/>
</g>
<g fill="rgb(0%, 0%, 79.998779%)" fill-opacity="1">
<use xlink:href="#glyph-7-0" x="218.013325" y="37.996232"/>
</g>
<path fill-rule="nonzero" fill="rgb(89.99939%, 44.999695%, 0%)" fill-opacity="1" d="M 247.726562 50.171875 C 247.726562 48.621094 246.46875 47.363281 244.917969 47.363281 C 243.363281 47.363281 242.105469 48.621094 242.105469 50.171875 C 242.105469 51.726562 243.363281 52.984375 244.917969 52.984375 C 246.46875 52.984375 247.726562 51.726562 247.726562 50.171875 Z M 247.726562 50.171875 "/>
<g fill="rgb(89.99939%, 44.999695%, 0%)" fill-opacity="1">
<use xlink:href="#glyph-12-0" x="240.377247" y="42.658376"/>
</g>
<g fill="rgb(89.99939%, 44.999695%, 0%)" fill-opacity="1">
<use xlink:href="#glyph-7-1" x="246.096928" y="43.652062"/>
</g>
<path fill-rule="nonzero" fill="rgb(59.999084%, 0%, 19.999695%)" fill-opacity="1" d="M 278.835938 41.6875 C 278.835938 40.136719 277.578125 38.878906 276.027344 38.878906 C 274.472656 38.878906 273.214844 40.136719 273.214844 41.6875 C 273.214844 43.242188 274.472656 44.5 276.027344 44.5 C 277.578125 44.5 278.835938 43.242188 278.835938 41.6875 Z M 278.835938 41.6875 "/>
<g fill="rgb(59.999084%, 0%, 19.999695%)" fill-opacity="1">
<use xlink:href="#glyph-12-0" x="271.464855" y="34.108286"/>
</g>
<g fill="rgb(59.999084%, 0%, 19.999695%)" fill-opacity="1">
<use xlink:href="#glyph-7-2" x="277.185534" y="35.101972"/>
</g>
<path fill="none" stroke-width="0.79701" stroke-linecap="butt" stroke-linejoin="miter" stroke="rgb(0%, 0%, 79.998779%)" stroke-opacity="1" stroke-miterlimit="10" d="M 170.082188 110.369694 C 170.082188 91.352857 164.823878 78.263855 172.278697 65.354958 " transform="matrix(0.997677, 0, 0, -0.997677, 46.949671, 157.640623)"/>
<path fill-rule="nonzero" fill="rgb(0%, 0%, 79.998779%)" fill-opacity="1" stroke-width="0.79701" stroke-linecap="butt" stroke-linejoin="miter" stroke="rgb(0%, 0%, 79.998779%)" stroke-opacity="1" stroke-miterlimit="10" d="M 5.441177 0.0011078 L 1.288517 1.571226 L 2.664194 -0.00063786 L 1.287671 -1.570473 Z M 5.441177 0.0011078 " transform="matrix(0.498818, 0.863998, 0.863998, -0.498818, 217.597384, 90.307199)"/>
<path fill="none" stroke-width="0.79701" stroke-linecap="butt" stroke-linejoin="miter" stroke="rgb(89.99939%, 44.999695%, 0%)" stroke-opacity="1" stroke-miterlimit="10" d="M 198.429295 104.700273 C 198.429295 85.988833 203.245171 75.166816 210.547292 62.520247 " transform="matrix(0.997677, 0, 0, -0.997677, 46.949671, 157.640623)"/>
<path fill-rule="nonzero" fill="rgb(89.99939%, 44.999695%, 0%)" fill-opacity="1" stroke-width="0.79701" stroke-linecap="butt" stroke-linejoin="miter" stroke="rgb(89.99939%, 44.999695%, 0%)" stroke-opacity="1" stroke-miterlimit="10" d="M 5.441546 0.0011654 L 1.288886 1.571284 L 2.664562 -0.000580261 L 1.28804 -1.570415 Z M 5.441546 0.0011654 " transform="matrix(0.498818, 0.863998, 0.863998, -0.498818, 255.776837, 93.135034)"/>
<path fill="none" stroke-width="0.79701" stroke-linecap="butt" stroke-linejoin="miter" stroke="rgb(59.999084%, 0%, 19.999695%)" stroke-opacity="1" stroke-miterlimit="10" d="M 231.921167 114.281125 C 250.84012 98.408311 252.249645 80.448618 255.824356 60.174955 " transform="matrix(0.997677, 0, 0, -0.997677, 46.949671, 157.640623)"/>
<path fill-rule="nonzero" fill="rgb(59.999084%, 0%, 19.999695%)" fill-opacity="1" stroke-width="0.79701" stroke-linecap="butt" stroke-linejoin="miter" stroke="rgb(59.999084%, 0%, 19.999695%)" stroke-opacity="1" stroke-miterlimit="10" d="M 5.442274 -0.000792529 L 1.286373 1.570823 L 2.663369 0.000135311 L 1.285275 -1.569848 Z M 5.442274 -0.000792529 " transform="matrix(0.173227, 0.982512, 0.982512, -0.173227, 301.753344, 95.184012)"/>
</svg>
